<svg width="211" height="49" viewBox="0 0 211 49" fill="none" xmlns="http://www.w3.org/2000/svg">
<path d="M64.5039 20.6992C65.2539 20.6133 65.9531 20.5547 66.6016 20.5234C67.2578 20.4844 67.8789 20.4648 68.4648 20.4648C69.9883 20.4648 71.2578 20.582 72.2734 20.8164C73.2891 21.0508 74.1016 21.3672 74.7109 21.7656C75.3281 22.1562 75.7656 22.6094 76.0234 23.125C76.2812 23.6406 76.4141 24.1758 76.4219 24.7305C76.4219 24.7617 76.4219 24.7891 76.4219 24.8125C76.4219 25.3438 76.3477 25.875 76.1992 26.4062C76.0508 26.9375 75.7891 27.4414 75.4141 27.918C75.0391 28.3945 74.5312 28.8359 73.8906 29.2422C73.2578 29.6406 72.457 29.9844 71.4883 30.2734C70.5273 30.5625 69.3828 30.7891 68.0547 30.9531C66.7266 31.1094 65.1836 31.1875 63.4258 31.1875C62.1289 31.1875 60.8867 31.1172 59.6992 30.9766C58.5195 30.8281 57.418 30.6445 56.3945 30.4258C55.3711 30.207 54.4375 29.9688 53.5938 29.7109C52.7578 29.4531 52.0352 29.2109 51.4258 28.9844C50.8242 28.7578 50.3477 28.5664 49.9961 28.4102C49.6523 28.2461 49.457 28.1523 49.4102 28.1289L50.7227 25.4922C50.7305 25.4922 50.8828 25.5625 51.1797 25.7031C51.4844 25.8359 51.9102 26 52.457 26.1953C53.0039 26.3906 53.6602 26.6055 54.4258 26.8398C55.1914 27.0664 56.043 27.2773 56.9805 27.4727C57.918 27.668 58.9258 27.832 60.0039 27.9648C61.0898 28.0977 62.2227 28.1641 63.4023 28.1641C65.0273 28.1641 66.4102 28.1094 67.5508 28C68.6914 27.8828 69.6367 27.7305 70.3867 27.543C71.1367 27.3555 71.7148 27.1406 72.1211 26.8984C72.5352 26.6562 72.8164 26.4141 72.9648 26.1719C73.1133 25.9297 73.1875 25.7031 73.1875 25.4922C73.1875 25.4297 73.1719 25.3164 73.1406 25.1523C73.1172 24.9883 73.0273 24.7852 72.8711 24.543C72.7383 24.332 72.543 24.1562 72.2852 24.0156C72.0273 23.8672 71.7188 23.7539 71.3594 23.6758C71.0078 23.5898 70.6094 23.5312 70.1641 23.5C69.7188 23.4609 69.2383 23.4414 68.7227 23.4414C67.957 23.4414 67.1289 23.4727 66.2383 23.5352C65.3555 23.5898 64.4414 23.6523 63.4961 23.7227C62.5508 23.793 61.5938 23.8594 60.625 23.9219C59.6562 23.9766 58.7109 24.0039 57.7891 24.0039C57.0312 24.0039 56.2969 23.9766 55.5859 23.9219C54.8828 23.8672 54.2227 23.7734 53.6055 23.6406C52.9883 23.5078 52.4258 23.3281 51.918 23.1016C51.4102 22.875 50.9727 22.5898 50.6055 22.2461C50.2383 21.9023 49.9531 21.4922 49.75 21.0156C49.5547 20.5391 49.457 19.9844 49.457 19.3516C49.457 18.8984 49.5273 18.4453 49.668 17.9922C49.8086 17.5391 50.0547 17.1055 50.4062 16.6914C50.7656 16.2695 51.25 15.8789 51.8594 15.5195C52.4766 15.1523 53.2578 14.8281 54.2031 14.5469C55.1562 14.2656 56.293 14.0391 57.6133 13.8672C58.9414 13.6953 60.4922 13.5898 62.2656 13.5508C62.4766 13.5508 62.6836 13.5508 62.8867 13.5508C63.9648 13.5508 65.0469 13.6055 66.1328 13.7148C67.2266 13.8242 68.2891 13.9766 69.3203 14.1719C70.3594 14.3672 71.3008 14.5859 72.1445 14.8281C72.9961 15.0703 73.7305 15.2969 74.3477 15.5078C74.9648 15.7188 75.4492 15.9023 75.8008 16.0586C76.1602 16.207 76.3594 16.293 76.3984 16.3164L75.1562 18.9297C75.1484 18.9219 74.9961 18.8516 74.6992 18.7188C74.4102 18.5781 74 18.4062 73.4688 18.2031C72.9453 18 72.3086 17.7852 71.5586 17.5586C70.8086 17.3242 69.9727 17.1133 69.0508 16.9258C68.1367 16.7305 67.1875 16.5781 66.2031 16.4688C65.2188 16.3594 64.2422 16.3047 63.2734 16.3047C63.0781 16.3047 62.8828 16.3086 62.6875 16.3164C61.1641 16.3477 59.8477 16.418 58.7383 16.5273C57.6289 16.6289 56.6914 16.7617 55.9258 16.9258C55.1602 17.0898 54.5469 17.2773 54.0859 17.4883C53.625 17.6992 53.2812 17.9258 53.0547 18.168C52.8281 18.4023 52.707 18.5977 52.6914 18.7539C52.6758 18.9102 52.668 19.0156 52.668 19.0703C52.668 19.2734 52.707 19.4805 52.7852 19.6914C52.8945 19.9727 53.0938 20.207 53.3828 20.3945C53.6719 20.582 54.0273 20.7344 54.4492 20.8516C54.8789 20.9688 55.3711 21.0547 55.9258 21.1094C56.4883 21.1562 57.0938 21.1797 57.7422 21.1797C58.7344 21.1797 59.8047 21.1328 60.9531 21.0391C62.1016 20.9453 63.2852 20.832 64.5039 20.6992ZM85.7734 13.8203V16.5273H82.7734V31H79.6914V16.5273H76.7031V13.8203H85.7734ZM90.0039 16.6328V20.9805H93.918V23.8047H90.0039V28.1523H94.75V30.9883H87.0156V13.8086L94.75 13.7969V16.6328H90.0039ZM112.27 23.5C111.598 24.1094 110.797 24.5703 109.867 24.8828C108.945 25.1875 107.926 25.3398 106.809 25.3398C105.941 25.3398 105.148 25.2656 104.43 25.1172C103.711 24.9609 103.059 24.75 102.473 24.4844C101.887 24.2188 101.363 23.9141 100.902 23.5703C100.441 23.2188 100.031 22.8516 99.6719 22.4688V31H96.4727V13.8086H99.6719V16.1406C99.6953 16.2812 99.7266 16.4688 99.7656 16.7031C99.8125 16.9375 99.875 17.1992 99.9531 17.4883C100.039 17.7695 100.145 18.0742 100.27 18.4023C100.402 18.7227 100.562 19.0469 100.75 19.375C101.992 21.5469 104.012 22.6328 106.809 22.6328C107.59 22.6328 108.289 22.5352 108.906 22.3398C109.523 22.1445 110.043 21.8594 110.465 21.4844C110.801 21.1875 111.055 20.8477 111.227 20.4648C111.406 20.0742 111.496 19.6641 111.496 19.2344C111.496 18.8516 111.418 18.4727 111.262 18.0977C111.113 17.7227 110.879 17.3867 110.559 17.0898C110.246 16.7852 109.844 16.543 109.352 16.3633C108.867 16.1758 108.293 16.082 107.629 16.082C106.512 16.082 105.531 16.2969 104.688 16.7266C103.844 17.1484 103.109 17.8008 102.484 18.6836L100.27 17.1133C101.145 15.8789 102.203 14.9492 103.445 14.3242C104.688 13.6914 106.082 13.375 107.629 13.375C108.605 13.375 109.5 13.5234 110.312 13.8203C111.133 14.1172 111.848 14.5586 112.457 15.1445C113.02 15.6914 113.449 16.3164 113.746 17.0195C114.051 17.7148 114.203 18.4531 114.203 19.2344C114.203 20.0625 114.039 20.8398 113.711 21.5664C113.383 22.293 112.902 22.9375 112.27 23.5Z" fill="white"/>
<path d="M137.863 13.8203V31H134.723V23.2305C134.59 23.3555 134.445 23.4531 134.289 23.5234C134.141 23.5859 133.949 23.6328 133.715 23.6641C133.48 23.6953 133.188 23.7148 132.836 23.7227C132.492 23.7305 132.055 23.7344 131.523 23.7344H126.402C124.809 23.7422 122.984 23.7461 120.93 23.7461V25.1523C120.93 25.7852 120.91 26.3516 120.871 26.8516C120.832 27.3438 120.75 27.793 120.625 28.1992C120.508 28.6055 120.336 28.9844 120.109 29.3359C119.891 29.6797 119.598 30.0195 119.23 30.3555C118.832 30.7227 118.383 30.9922 117.883 31.1641C117.391 31.3438 116.883 31.4336 116.359 31.4336C115.836 31.4336 115.324 31.3438 114.824 31.1641C114.324 30.9922 113.879 30.7344 113.488 30.3906C113.098 30.0469 112.781 29.6211 112.539 29.1133C112.305 28.5977 112.188 28 112.188 27.3203C112.188 26.8594 112.266 26.3398 112.422 25.7617C112.578 25.1758 112.859 24.5977 113.266 24.0273C113.68 23.4492 114.242 22.918 114.953 22.4336C115.664 21.9414 116.574 21.5586 117.684 21.2852V13.8203H120.93V21.0625C121.117 21.0469 121.285 21.0391 121.434 21.0391C121.582 21.0312 121.762 21.0273 121.973 21.0273L132.297 21.0391C132.617 21.0391 132.898 21.0312 133.141 21.0156C133.383 20.9922 133.594 20.9336 133.773 20.8398C133.953 20.7383 134.102 20.5898 134.219 20.3945C134.344 20.1914 134.441 19.9102 134.512 19.5508C134.59 19.1836 134.645 18.7266 134.676 18.1797C134.707 17.6328 134.723 16.9648 134.723 16.1758V13.8203H137.863ZM117.016 28.0586C117.125 27.9414 117.219 27.793 117.297 27.6133C117.375 27.4336 117.441 27.2422 117.496 27.0391C117.551 26.8281 117.59 26.6094 117.613 26.3828C117.645 26.1562 117.668 25.9336 117.684 25.7148C117.699 25.457 117.707 25.1914 117.707 24.918C117.707 24.6445 117.699 24.3672 117.684 24.0859C117.332 24.2031 116.996 24.3555 116.676 24.543C116.363 24.7227 116.09 24.9414 115.855 25.1992C115.621 25.457 115.434 25.7578 115.293 26.1016C115.16 26.4453 115.094 26.832 115.094 27.2617C115.094 27.6758 115.199 27.9766 115.41 28.1641C115.621 28.3438 115.855 28.4336 116.113 28.4336C116.285 28.4336 116.449 28.4023 116.605 28.3398C116.77 28.2695 116.906 28.1758 117.016 28.0586ZM139.879 17.043V13.8203H142.984V17.043H139.879ZM142.984 18.2617V31H139.879V18.2617H142.984ZM153.906 13.8203V27.7773C153.906 28.2852 153.891 28.7969 153.859 29.3125C153.836 29.8203 153.773 30.3086 153.672 30.7773C153.578 31.2461 153.438 31.6797 153.25 32.0781C153.07 32.4844 152.824 32.8359 152.512 33.1328C152.199 33.4297 151.809 33.6602 151.34 33.8242C150.879 33.9961 150.32 34.082 149.664 34.082C148.953 34.082 148.312 33.9805 147.742 33.7773C147.18 33.5742 146.703 33.3008 146.312 32.957C145.93 32.6211 145.633 32.2344 145.422 31.7969C145.219 31.3594 145.117 30.9062 145.117 30.4375C145.117 30.3984 145.117 30.3633 145.117 30.332C145.117 30.293 145.121 30.2539 145.129 30.2148H147.953C147.953 30.2305 147.953 30.25 147.953 30.2734C147.953 30.4609 147.992 30.6406 148.07 30.8125C148.148 30.9844 148.258 31.1328 148.398 31.2578C148.539 31.3906 148.699 31.4922 148.879 31.5625C149.066 31.6406 149.254 31.6797 149.441 31.6797C149.754 31.6797 150.008 31.6172 150.203 31.4922C150.398 31.375 150.551 31.2188 150.66 31.0234C150.777 30.8359 150.855 30.625 150.895 30.3906C150.934 30.1484 150.953 29.9141 150.953 29.6875V29.043C150.531 29.1133 150.137 29.1484 149.77 29.1484C148.816 29.1484 147.996 28.957 147.309 28.5742C146.629 28.1836 146.066 27.6758 145.621 27.0508C145.184 26.418 144.859 25.6992 144.648 24.8945C144.445 24.082 144.344 23.2539 144.344 22.4102C144.344 21.3945 144.41 20.4531 144.543 19.5859C144.684 18.7109 144.887 17.9258 145.152 17.2305C145.418 16.5352 145.742 15.9336 146.125 15.4258C146.516 14.918 146.961 14.5234 147.461 14.2422C147.703 14.1094 147.969 14.0039 148.258 13.9258C148.547 13.8398 148.848 13.7969 149.16 13.7969C149.473 13.7969 149.781 13.8477 150.086 13.9492C150.398 14.043 150.688 14.2031 150.953 14.4297V13.8203H153.906ZM147.484 22.4336C147.484 22.9648 147.527 23.4844 147.613 23.9922C147.699 24.4922 147.844 24.9414 148.047 25.3398C148.258 25.7305 148.531 26.0469 148.867 26.2891C149.211 26.5234 149.641 26.6406 150.156 26.6406C150.281 26.6406 150.406 26.6328 150.531 26.6172C150.664 26.6016 150.805 26.5781 150.953 26.5469V18.6016C150.953 17.8125 150.832 17.2539 150.59 16.9258C150.355 16.5977 150.02 16.4336 149.582 16.4336C149.199 16.4336 148.875 16.5742 148.609 16.8555C148.344 17.1289 148.125 17.5234 147.953 18.0391C147.789 18.5547 147.668 19.1836 147.59 19.9258C147.52 20.668 147.484 21.5039 147.484 22.4336ZM165.66 13.8203V31H162.438V23.7461H158.816V31H155.594V13.8203H158.816V21.0391H162.438V13.8203H165.66ZM170.605 16.6328V20.9805H174.52V23.8047H170.605V28.1523H175.352V30.9883H167.617V13.8086L175.352 13.7969V16.6328H170.605ZM183.238 28.7266C183.582 28.7266 183.934 28.6797 184.293 28.5859C184.66 28.4844 184.969 28.3477 185.219 28.1758L186.52 30.5078C185.988 30.8203 185.438 31.043 184.867 31.1758C184.297 31.3164 183.715 31.3867 183.121 31.3867C182.684 31.3867 182.23 31.3086 181.762 31.1523C181.293 31.0039 180.852 30.7734 180.438 30.4609C180.031 30.1406 179.672 29.7422 179.359 29.2656C179.047 28.7891 178.848 28.3125 178.762 27.8359C178.676 27.3516 178.633 26.9336 178.633 26.582C178.633 26.1992 178.68 25.6953 178.773 25.0703C178.867 24.4453 179.137 23.6289 179.582 22.6211C179.785 22.1758 180 21.6875 180.227 21.1562C180.461 20.625 180.699 20.0859 180.941 19.5391C181.184 18.9844 181.422 18.4375 181.656 17.8984C181.898 17.3516 182.125 16.8516 182.336 16.3984H178.832V18.7891H176.254V13.8203H185.805V16.2695L183.367 21.0977C182.781 22.2617 182.336 23.3164 182.031 24.2617C181.727 25.1992 181.57 25.8398 181.562 26.1836C181.555 26.5273 181.551 26.7109 181.551 26.7344C181.551 27.3594 181.688 27.8477 181.961 28.1992C182.234 28.5508 182.66 28.7266 183.238 28.7266Z" fill="#FF7A00"/>
<path d="M14.8911 31.2363L26.2366 19.8909H37.582V31.2363H26.2366V42.5818H14.8911V31.2363Z" fill="white"/>
<path d="M24.1089 17.7637L12.7634 29.1091L1.41798 29.1091L1.41798 17.7637L12.7634 17.7637L12.7634 6.41821L24.1089 6.41821L24.1089 17.7637Z" fill="white"/>
<circle cx="32.6181" cy="11.3818" r="6.38182" fill="white"/>
<circle cx="6.38182" cy="37.6182" r="6.38182" fill="white"/>
</svg>
