<svg width="36" height="35" viewBox="0 0 36 35" fill="none" xmlns="http://www.w3.org/2000/svg">
<g id="Iconly">
<g id="Heart">
<path id="Path_33961" fill-rule="evenodd" clip-rule="evenodd" d="M17.8833 28.9452C15.2153 27.3032 12.7332 25.3707 10.4816 23.1822C8.89864 21.6061 7.69353 19.6847 6.9586 17.5651C5.63607 13.4535 7.18087 8.74643 11.5041 7.35341C13.7762 6.62195 16.2577 7.04001 18.1723 8.47681C20.0876 7.04176 22.5682 6.62385 24.8404 7.35341C29.1636 8.74643 30.7196 13.4535 29.397 17.5651C28.6621 19.6847 27.457 21.6061 25.874 23.1822C23.6224 25.3707 21.1404 27.3032 18.4723 28.9452L18.1834 29.125L17.8833 28.9452Z" stroke="#DF0000" stroke-width="1.5" stroke-linecap="round" stroke-linejoin="round"/>
<path id="Path_33964" d="M22.7733 11.9818C24.0828 12.4001 25.0131 13.5757 25.1294 14.9588" stroke="#DF0000" stroke-width="1.5" stroke-linecap="round" stroke-linejoin="round"/>
</g>
</g>
</svg>
