<svg width="18" height="19" viewBox="0 0 18 19" fill="none" xmlns="http://www.w3.org/2000/svg">
<rect width="18" height="19" fill="#F5F5F5"/>
<g id="Main">
<rect width="1440" height="3706" transform="translate(-1032 -61)" fill="#201D1D"/>
<g id="Header">
<g id="Frame 3">
<g id="Button">
<rect x="-23.5" y="-12" width="250" height="43" rx="21.5" stroke="white"/>
<g id="Iconly">
<g id="Password">
<path id="Stroke 1" fill-rule="evenodd" clip-rule="evenodd" d="M12.2507 2.56265H5.74899C3.48324 2.56265 2.06274 4.1669 2.06274 6.43715V12.5631C2.06274 14.8334 3.47649 16.4376 5.74899 16.4376H12.25C14.5232 16.4376 15.9377 14.8334 15.9377 12.5631V6.43715C15.9377 4.1669 14.5232 2.56265 12.2507 2.56265Z" stroke="white" stroke-width="1.5" stroke-linecap="round" stroke-linejoin="round"/>
<path id="Stroke 3" fill-rule="evenodd" clip-rule="evenodd" d="M8.01919 9.50015C8.01919 10.2667 7.39744 10.8892 6.63019 10.8892C5.86369 10.8892 5.24194 10.2667 5.24194 9.50015C5.24194 8.73365 5.86369 8.11115 6.63019 8.11115C7.39744 8.11115 8.01919 8.73365 8.01919 9.50015Z" stroke="white" stroke-width="1.5" stroke-linecap="round" stroke-linejoin="round"/>
<path id="Stroke 5" d="M8.01917 9.50014H12.7577V10.8891" stroke="white" stroke-width="1.5" stroke-linecap="round" stroke-linejoin="round"/>
<path id="Stroke 7" d="M10.6361 10.8888V9.49977" stroke="white" stroke-width="1.5" stroke-linecap="round" stroke-linejoin="round"/>
</g>
</g>
</g>
</g>
</g>
</g>
</svg>
